<svg xmlns="http://www.w3.org/2000/svg" version="1.1" xmlns:xlink="http://www.w3.org/1999/xlink" width="512" height="512" x="0" y="0" viewBox="0 0 64 64" style="enable-background:new 0 0 512 512" xml:space="preserve" class=""><g><path d="m58.046 24.389-7.633-6.327v-5.106a2.018 2.018 0 0 0-2.02-2.01h-6.561l-7.245-6.013a4.053 4.053 0 0 0-5.174 0l-7.246 6.012h-6.565a2.012 2.012 0 0 0-2.01 2.01v5.1L5.956 24.39a4.038 4.038 0 0 0-1.466 3.119v28.441A4.056 4.056 0 0 0 8.539 60H55.46a4.056 4.056 0 0 0 4.051-4.05V27.507a4.04 4.04 0 0 0-1.465-3.12Zm-1.276 1.54c.127.154.387.243.102.344l-6.459 5.257V20.66Zm-43.177-5.274v10.88l-6.465-5.262c-.283-.1-.026-.19.103-.344ZM8.54 58a2.034 2.034 0 0 1-.336-.034l7.283-6.135a1 1 0 0 0-1.289-1.53l-7.57 6.376a2.03 2.03 0 0 1-.139-.728V28.331L21.27 40.362a1 1 0 0 0 1.262-1.55l-6.94-5.649.01-20.218h14.4a1 1 0 0 0 0-2H25.3l5.391-4.473a2.051 2.051 0 0 1 2.62 0l5.39 4.473h-4.697a1 1 0 0 0 0 2l14.41.01c-.002 3.69.002 16.297 0 20.203l-6.946 5.653a1 1 0 0 0 1.262 1.551L57.51 28.331v27.618a2.03 2.03 0 0 1-.139.725L34.61 37.514a4.032 4.032 0 0 0-5.221-.003l-12.13 10.22a1 1 0 0 0 1.289 1.53l12.13-10.22a2.038 2.038 0 0 1 2.641 0l22.482 18.925c-.361.123-46.883-.017-47.261.034Z" fill="#328fe0" opacity="1" data-original="#000000" class=""></path><path d="M30.577 32.277a8.15 8.15 0 0 0 6.014-1.301 1 1 0 1 0-1.133-1.649 6.146 6.146 0 0 1-4.545.978c-7.675-1.597-6.033-12.763 1.764-12.108a6.13 6.13 0 0 1 5.396 5.33c.043.96.284 2.718-1.05 2.805a.975.975 0 0 1-.972-.973v-4.13a1 1 0 0 0-1.923-.381 4.05 4.05 0 1 0 .615 6.394 2.984 2.984 0 0 0 5.194-1.255 8.118 8.118 0 0 0-13.907-7.21c-4.335 4.528-1.703 12.533 4.547 13.5ZM32 26.33a2.05 2.05 0 0 1 0-4.101 2.05 2.05 0 0 1 0 4.101Z" fill="#328fe0" opacity="1" data-original="#000000" class=""></path></g></svg>