<svg xmlns="http://www.w3.org/2000/svg" version="1.1" xmlns:xlink="http://www.w3.org/1999/xlink" width="512" height="512" x="0" y="0" viewBox="0 0 24 24" style="enable-background:new 0 0 512 512" xml:space="preserve" class=""><g><clipPath id="a"><path d="M0 0h24v24H0z" fill="#328fe0" opacity="1" data-original="#000000" class=""></path></clipPath><g clip-path="url(#a)"><path fill="#328fe0" d="M4.19 4.47C3.47 4.79 3 5.51 3 6.3V11c0 5.55 3.84 10.74 9 12 5.16-1.26 9-6.45 9-12V6.3c0-.79-.47-1.51-1.19-1.83l-7-3.11c-.52-.23-1.11-.23-1.62 0zM12 7c.55 0 1 .45 1 1s-.45 1-1 1-1-.45-1-1 .45-1 1-1zm0 4c.55 0 1 .45 1 1v4c0 .55-.45 1-1 1s-1-.45-1-1v-4c0-.55.45-1 1-1z" opacity="1" data-original="#000000" class=""></path></g></g></svg>